<svg width="71" height="71" viewBox="0 0 71 71" fill="none" xmlns="http://www.w3.org/2000/svg"><rect x=".25" y=".25" width="70.5" height="70.5" rx="9.75" stroke="#5956E8" stroke-width=".5"/><path d="M26.6971 31.9696c.1433.1445.3138.2592.5017.3374.1878.0783.3894.1186.5929.1186.2035 0 .405-.0403.5929-.1186.1878-.0782.3583-.1929.5017-.3374.1444-.1433.2591-.3138.3374-.5017.0783-.1879.1186-.3894.1186-.5929 0-.2035-.0403-.405-.1186-.5929-.0783-.1879-.193-.3584-.3374-.5017l-3.0834-3.0833c-.1466-.1404-.3195-.2504-.5087-.3238-.3754-.1542-.7964-.1542-1.1717 0-.1892.0734-.3621.1834-.5087.3238l-3.0834 3.0833c-.2903.2903-.4534.6841-.4534 1.0946s.1631.8043.4534 1.0946.6841.4534 1.0946.4534.8043-.1631 1.0946-.4534l.4471-.4625v7.9858l-.4471-.4625c-.2903-.2903-.6841-.4534-1.0946-.4534s-.8043.1631-1.0946.4534-.4534.6841-.4534 1.0946.1631.8043.4534 1.0946l3.0834 3.0833c.1466.1404.3195.2504.5087.3238.1845.0815.3841.1237.5858.1237.2018 0 .4013-.0422.5859-.1237.1892-.0734.3621-.1834.5087-.3238l3.0834-3.0833c.1437-.1438.2577-.3144.3355-.5022.0778-.1878.1178-.3891.1178-.5924 0-.2033-.04-.4046-.1178-.5924-.0778-.1878-.1918-.3584-.3355-.5022-.1438-.1437-.3144-.2578-.5022-.3355-.1879-.0778-.3891-.1179-.5924-.1179-.2033 0-.4046.0401-.5924.1179-.1878.0777-.3585.1918-.5022.3355l-.4471.4625v-7.9858l.4471.4625Zm7.2612-2.6363H49.375c.4089 0 .801-.1624 1.0901-.4515s.4516-.6813.4516-1.0901c0-.4089-.1625-.801-.4516-1.0902-.2891-.2891-.6812-.4515-1.0901-.4515H33.9583c-.4088 0-.801.1624-1.0901.4515-.2891.2892-.4515.6813-.4515 1.0902 0 .4088.1624.801.4515 1.0901s.6813.4515 1.0901.4515Zm15.4167 4.625H33.9583c-.4088 0-.801.1625-1.0901.4516s-.4515.6812-.4515 1.0901c0 .4089.1624.801.4515 1.0901s.6813.4516 1.0901.4516H49.375c.4089 0 .801-.1625 1.0901-.4516s.4516-.6812.4516-1.0901c0-.4089-.1625-.801-.4516-1.0901s-.6812-.4516-1.0901-.4516Zm0 7.7084H33.9583c-.4088 0-.801.1624-1.0901.4515s-.4515.6813-.4515 1.0901c0 .4089.1624.801.4515 1.0902.2891.2891.6813.4515 1.0901.4515H49.375c.4089 0 .801-.1624 1.0901-.4515.2891-.2892.4516-.6813.4516-1.0902 0-.4088-.1625-.801-.4516-1.0901s-.6812-.4515-1.0901-.4515Z" fill="#5956E8"/></svg>