<svg width="37" height="37" viewBox="0 0 37 37" fill="none" xmlns="http://www.w3.org/2000/svg"><path d="M9.69708 14.9696c.14332.1445.31382.2592.50172.3374.1878.0783.3894.1186.5929.1186.2035 0 .405-.0403.5929-.1186.1878-.0782.3583-.1929.5017-.3374.1444-.1433.2591-.3138.3374-.5017.0783-.1879.1186-.3894.1186-.5929 0-.2035-.0403-.405-.1186-.5929-.0783-.1879-.193-.3584-.3374-.5017L8.80292 9.69708c-.14662-.14035-.31951-.25037-.50875-.32375-.37534-.15419-.79633-.15419-1.17167 0-.18924.07338-.36213.1834-.50875.32375L3.53042 12.7804c-.2903.2903-.45339.6841-.45339 1.0946s.16309.8043.45339 1.0946.68403.4534 1.09458.4534c.41055 0 .80428-.1631 1.09458-.4534l.44709-.4625v7.9858l-.44709-.4625c-.2903-.2903-.68403-.4534-1.09458-.4534-.41055 0-.80428.1631-1.09458.4534-.2903.2903-.45339.6841-.45339 1.0946s.16309.8043.45339 1.0946l3.08333 3.0833c.14662.1404.31951.2504.50875.3238.18454.0815.38408.1237.58583.1237.20176 0 .4013-.0422.58584-.1237.18924-.0734.36213-.1834.50875-.3238l3.08338-3.0833c.1437-.1438.2577-.3144.3355-.5022.0778-.1878.1178-.3891.1178-.5924 0-.2033-.04-.4046-.1178-.5924-.0778-.1878-.1918-.3584-.3355-.5022-.1438-.1437-.3144-.2578-.5022-.3355-.1879-.0778-.3891-.1179-.5924-.1179-.2033 0-.4046.0401-.5924.1179-.1878.0777-.35847.1918-.50222.3355l-.44708.4625v-7.9858l.44708.4625Zm7.26122-2.6363H32.375c.4089 0 .801-.1624 1.0901-.4515s.4516-.6813.4516-1.0901c0-.4089-.1625-.80104-.4516-1.09016-.2891-.28911-.6812-.45154-1.0901-.45154H16.9583c-.4088 0-.801.16243-1.0901.45154-.2891.28912-.4515.68126-.4515 1.09016 0 .4088.1624.801.4515 1.0901s.6813.4515 1.0901.4515Zm15.4167 4.625H16.9583c-.4088 0-.801.1625-1.0901.4516s-.4515.6812-.4515 1.0901c0 .4089.1624.801.4515 1.0901s.6813.4516 1.0901.4516H32.375c.4089 0 .801-.1625 1.0901-.4516s.4516-.6812.4516-1.0901c0-.4089-.1625-.801-.4516-1.0901s-.6812-.4516-1.0901-.4516Zm0 7.7084H16.9583c-.4088 0-.801.1624-1.0901.4515s-.4515.6813-.4515 1.0901c0 .4089.1624.801.4515 1.0902.2891.2891.6813.4515 1.0901.4515H32.375c.4089 0 .801-.1624 1.0901-.4515.2891-.2892.4516-.6813.4516-1.0902 0-.4088-.1625-.801-.4516-1.0901s-.6812-.4515-1.0901-.4515Z" fill="#5956E8"/></svg>